#Comment line ignore any data following # character 
#Hierarchical Translation and Rotation (.htr) file 
[Header]	
#Header keywords are followed by a single value 
FileType HTR		#Single word string
DataType HTRS		#Translation followed by rotation and scale data
FileVersion 1		#integer
NumSegments 84		#integer
NumFrames 2		#integer
DataFrameRate 30		#integer, data frame rate in this file
EulerRotationOrder ZYX
CalibrationUnits mm
RotationUnits Degrees
GlobalAxisofGravity Y
BoneLengthAxis Y
ScaleFactor 1.00
[SegmentNames&Hierarchy]
#CHILD	PARENT
MASTER GLOBAL
root MASTER
chest root
L_mid_tent01 root
R_mid_tent01 root
spine01 root
Bip01_Neck chest
L_humerus chest
R_humerus chest
weapon_bone chest
Bip01_Head Bip01_Neck
eye_left_bone Bip01_Head
eye_right_bone Bip01_Head
L_forearm L_humerus
L_front_hand L_forearm
L_weapon_bone L_forearm
L_front_hand01_01 L_front_hand
L_front_hand02_01 L_front_hand
L_front_hand03_01 L_front_hand
L_front_hand01_02 L_front_hand01_01
L_front_hand02_02 L_front_hand02_01
L_front_hand03_02 L_front_hand03_01
R_forearm R_humerus
R_front_hand R_forearm
R_weapon_bone R_forearm
R_front_hand01_01 R_front_hand
R_front_hand02_01 R_front_hand
R_front_hand03_01 R_front_hand
R_front_hand01_02 R_front_hand01_01
R_front_hand02_02 R_front_hand02_01
R_front_hand03_02 R_front_hand03_01
null_rope01_connect L_mid_tent01
Rope1_Seg01 null_rope01_connect
Rope1_Seg02 Rope1_Seg01
Rope1_Seg03 Rope1_Seg02
Rope1_Seg04 Rope1_Seg03
Rope1_Seg05 Rope1_Seg04
Rope1_Seg06 Rope1_Seg05
Rope1_Seg07 Rope1_Seg06
Rope1_Seg09 Rope1_Seg07
L_mid_hand01 Rope1_Seg09
L_mid_hand02 Rope1_Seg09
L_mid_hand03 Rope1_Seg09
null_rope02_connect R_mid_tent01
Rope2_Seg01 null_rope02_connect
Rope2_Seg02 Rope2_Seg01
Rope2_Seg03 Rope2_Seg02
Rope2_Seg04 Rope2_Seg03
Rope2_Seg05 Rope2_Seg04
Rope2_Seg06 Rope2_Seg05
Rope2_Seg07 Rope2_Seg06
Rope2_Seg09 Rope2_Seg07
R_mid_hand01 Rope2_Seg09
R_mid_hand02 Rope2_Seg09
R_mid_hand03 Rope2_Seg09
spine02 spine01
spine03 spine02
pelvis spine03
null_rope03_connect pelvis
null_rope04_connect pelvis
Rope3_Seg01 null_rope03_connect
Rope3_Seg02 Rope3_Seg01
Rope3_Seg03 Rope3_Seg02
Rope3_Seg04 Rope3_Seg03
Rope3_Seg05 Rope3_Seg04
Rope3_Seg06 Rope3_Seg05
Rope3_Seg07 Rope3_Seg06
Rope3_Seg08 Rope3_Seg07
Rope3_Seg09 Rope3_Seg08
R_rear_hand01 Rope3_Seg09
R_rear_hand02 Rope3_Seg09
R_rear_hand03 Rope3_Seg09
Rope4_Seg01 null_rope04_connect
Rope4_Seg02 Rope4_Seg01
Rope4_Seg03 Rope4_Seg02
Rope4_Seg04 Rope4_Seg03
Rope4_Seg05 Rope4_Seg04
Rope4_Seg06 Rope4_Seg05
Rope4_Seg07 Rope4_Seg06
Rope4_Seg08 Rope4_Seg07
Rope4_Seg09 Rope4_Seg08
L_rear_hand01 Rope4_Seg09
L_rear_hand02 Rope4_Seg09
L_rear_hand03 Rope4_Seg09
[BasePosition]
#SegmentName Tx, Ty, Tz, Rx, Ry, Rz, BoneLength
MASTER 0.000000 0.000000 0.000000 -90.000000 0.000000 0.000000 10.000000 
root 0.000000 0.000000 0.000000 0.000000 0.000000 0.000000 10.000000 
chest 0.000000 0.000000 0.000000 0.000000 0.000000 0.000000 10.000000 
L_mid_tent01 0.000000 0.000000 0.000000 0.000000 0.000000 0.000000 10.000000 
R_mid_tent01 0.000000 0.000000 0.000000 0.000000 0.000000 0.000000 10.000000 
spine01 0.000000 0.000000 0.000000 0.000000 0.000000 0.000000 10.000000 
Bip01_Neck 0.000000 0.000000 0.000000 0.000000 0.000000 0.000000 10.000000 
L_humerus 0.000000 0.000000 0.000000 0.000000 0.000000 0.000000 10.000000 
R_humerus 0.000000 0.000000 0.000000 0.000000 0.000000 0.000000 10.000000 
weapon_bone 0.000000 0.000000 0.000000 0.000000 0.000000 0.000000 10.000000 
Bip01_Head 0.000000 0.000000 0.000000 0.000000 0.000000 0.000000 10.000000 
eye_left_bone 0.000000 0.000000 0.000000 0.000000 0.000000 0.000000 10.000000 
eye_right_bone 0.000000 0.000000 0.000000 0.000000 0.000000 0.000000 10.000000 
L_forearm 0.000000 0.000000 0.000000 0.000000 0.000000 0.000000 10.000000 
L_front_hand 0.000000 0.000000 0.000000 0.000000 0.000000 0.000000 10.000000 
L_weapon_bone 0.000000 0.000000 0.000000 0.000000 0.000000 0.000000 10.000000 
L_front_hand01_01 0.000000 0.000000 0.000000 0.000000 0.000000 0.000000 10.000000 
L_front_hand02_01 0.000000 0.000000 0.000000 0.000000 0.000000 0.000000 10.000000 
L_front_hand03_01 0.000000 0.000000 0.000000 0.000000 0.000000 0.000000 10.000000 
L_front_hand01_02 0.000000 0.000000 0.000000 0.000000 0.000000 0.000000 10.000000 
L_front_hand02_02 0.000000 0.000000 0.000000 0.000000 0.000000 0.000000 10.000000 
L_front_hand03_02 0.000000 0.000000 0.000000 0.000000 0.000000 0.000000 10.000000 
R_forearm 0.000000 0.000000 0.000000 0.000000 0.000000 0.000000 10.000000 
R_front_hand 0.000000 0.000000 0.000000 0.000000 0.000000 0.000000 10.000000 
R_weapon_bone 0.000000 0.000000 0.000000 0.000000 0.000000 0.000000 10.000000 
R_front_hand01_01 0.000000 0.000000 0.000000 0.000000 0.000000 0.000000 10.000000 
R_front_hand02_01 0.000000 0.000000 0.000000 0.000000 0.000000 0.000000 10.000000 
R_front_hand03_01 0.000000 0.000000 0.000000 0.000000 0.000000 0.000000 10.000000 
R_front_hand01_02 0.000000 0.000000 0.000000 0.000000 0.000000 0.000000 10.000000 
R_front_hand02_02 0.000000 0.000000 0.000000 0.000000 0.000000 0.000000 10.000000 
R_front_hand03_02 0.000000 0.000000 0.000000 0.000000 0.000000 0.000000 10.000000 
null_rope01_connect 0.000000 0.000000 0.000000 0.000000 0.000000 0.000000 10.000000 
Rope1_Seg01 0.000000 0.000000 0.000000 0.000000 0.000000 0.000000 10.000000 
Rope1_Seg02 0.000000 0.000000 0.000000 0.000000 0.000000 0.000000 10.000000 
Rope1_Seg03 0.000000 0.000000 0.000000 0.000000 0.000000 0.000000 10.000000 
Rope1_Seg04 0.000000 0.000000 0.000000 0.000000 0.000000 0.000000 10.000000 
Rope1_Seg05 0.000000 0.000000 0.000000 0.000000 0.000000 0.000000 10.000000 
Rope1_Seg06 0.000000 0.000000 0.000000 0.000000 0.000000 0.000000 10.000000 
Rope1_Seg07 0.000000 0.000000 0.000000 0.000000 0.000000 0.000000 10.000000 
Rope1_Seg09 0.000000 0.000000 0.000000 0.000000 0.000000 0.000000 10.000000 
L_mid_hand01 0.000000 0.000000 0.000000 0.000000 0.000000 0.000000 10.000000 
L_mid_hand02 0.000000 0.000000 0.000000 0.000000 0.000000 0.000000 10.000000 
L_mid_hand03 0.000000 0.000000 0.000000 0.000000 0.000000 0.000000 10.000000 
null_rope02_connect 0.000000 0.000000 0.000000 0.000000 0.000000 0.000000 10.000000 
Rope2_Seg01 0.000000 0.000000 0.000000 0.000000 0.000000 0.000000 10.000000 
Rope2_Seg02 0.000000 0.000000 0.000000 0.000000 0.000000 0.000000 10.000000 
Rope2_Seg03 0.000000 0.000000 0.000000 0.000000 0.000000 0.000000 10.000000 
Rope2_Seg04 0.000000 0.000000 0.000000 0.000000 0.000000 0.000000 10.000000 
Rope2_Seg05 0.000000 0.000000 0.000000 0.000000 0.000000 0.000000 10.000000 
Rope2_Seg06 0.000000 0.000000 0.000000 0.000000 0.000000 0.000000 10.000000 
Rope2_Seg07 0.000000 0.000000 0.000000 0.000000 0.000000 0.000000 10.000000 
Rope2_Seg09 0.000000 0.000000 0.000000 0.000000 0.000000 0.000000 10.000000 
R_mid_hand01 0.000000 0.000000 0.000000 0.000000 0.000000 0.000000 10.000000 
R_mid_hand02 0.000000 0.000000 0.000000 0.000000 0.000000 0.000000 10.000000 
R_mid_hand03 0.000000 0.000000 0.000000 0.000000 0.000000 0.000000 10.000000 
spine02 0.000000 0.000000 0.000000 0.000000 0.000000 0.000000 10.000000 
spine03 0.000000 0.000000 0.000000 0.000000 0.000000 0.000000 10.000000 
pelvis 0.000000 0.000000 0.000000 0.000000 0.000000 0.000000 10.000000 
null_rope03_connect 0.000000 0.000000 0.000000 0.000000 0.000000 0.000000 10.000000 
null_rope04_connect 0.000000 0.000000 0.000000 0.000000 0.000000 0.000000 10.000000 
Rope3_Seg01 0.000000 0.000000 0.000000 0.000000 0.000000 0.000000 10.000000 
Rope3_Seg02 0.000000 0.000000 0.000000 0.000000 0.000000 0.000000 10.000000 
Rope3_Seg03 0.000000 0.000000 0.000000 0.000000 0.000000 0.000000 10.000000 
Rope3_Seg04 0.000000 0.000000 0.000000 0.000000 0.000000 0.000000 10.000000 
Rope3_Seg05 0.000000 0.000000 0.000000 0.000000 0.000000 0.000000 10.000000 
Rope3_Seg06 0.000000 0.000000 0.000000 0.000000 0.000000 0.000000 10.000000 
Rope3_Seg07 0.000000 0.000000 0.000000 0.000000 0.000000 0.000000 10.000000 
Rope3_Seg08 0.000000 0.000000 0.000000 0.000000 0.000000 0.000000 10.000000 
Rope3_Seg09 0.000000 0.000000 0.000000 0.000000 0.000000 0.000000 10.000000 
R_rear_hand01 0.000000 0.000000 0.000000 0.000000 0.000000 0.000000 10.000000 
R_rear_hand02 0.000000 0.000000 0.000000 0.000000 0.000000 0.000000 10.000000 
R_rear_hand03 0.000000 0.000000 0.000000 0.000000 0.000000 0.000000 10.000000 
Rope4_Seg01 0.000000 0.000000 0.000000 0.000000 0.000000 0.000000 10.000000 
Rope4_Seg02 0.000000 0.000000 0.000000 0.000000 0.000000 0.000000 10.000000 
Rope4_Seg03 0.000000 0.000000 0.000000 0.000000 0.000000 0.000000 10.000000 
Rope4_Seg04 0.000000 0.000000 0.000000 0.000000 0.000000 0.000000 10.000000 
Rope4_Seg05 0.000000 0.000000 0.000000 0.000000 0.000000 0.000000 10.000000 
Rope4_Seg06 0.000000 0.000000 0.000000 0.000000 0.000000 0.000000 10.000000 
Rope4_Seg07 0.000000 0.000000 0.000000 0.000000 0.000000 0.000000 10.000000 
Rope4_Seg08 0.000000 0.000000 0.000000 0.000000 0.000000 0.000000 10.000000 
Rope4_Seg09 0.000000 0.000000 0.000000 0.000000 0.000000 0.000000 10.000000 
L_rear_hand01 0.000000 0.000000 0.000000 0.000000 0.000000 0.000000 10.000000 
L_rear_hand02 0.000000 0.000000 0.000000 0.000000 0.000000 0.000000 10.000000 
L_rear_hand03 0.000000 0.000000 0.000000 0.000000 0.000000 0.000000 10.000000 
#Beginning of Data. Separated by tabs
#Fr	Tx	Ty	Tz	Rx	Ry	Rz	SF
[MASTER]
18 -0.000345 2234.020752 3327.702637 0.001660 0.001660 0.001660 4008.048584
19 -0.000371 2394.497314 3478.192383 0.001660 0.001660 0.001660 4222.729004
[root]
18 -37.882366 -51.398785 1502.621460 -87.537254 4.557222 -92.865822 1503.977417
19 -37.384411 -53.920143 1502.612793 -89.200592 1.222266 -92.719749 1504.044678
[chest]
18 -84.512650 -34.090519 0.000000 -1.565382 0.680365 -166.947693 91.129311
19 -84.512650 -34.090519 0.000000 -1.613775 0.743519 -168.776428 91.129311
[L_mid_tent01]
18 27.299017 22.179041 -249.918671 -10.326716 23.475439 54.923740 252.381638
19 27.299011 22.179037 -249.918671 -14.504703 23.212635 46.713688 252.381638
[R_mid_tent01]
18 23.228794 24.509907 226.238495 161.299133 -39.988075 84.827362 228.744751
19 23.228794 24.509907 226.238495 169.163193 -43.527908 74.645737 228.744751
[spine01]
18 -0.361383 -0.195265 0.000000 0.002108 0.001032 37.853149 0.410763
19 -0.361383 -0.195265 0.000000 0.002106 0.001036 37.597069 0.410763
[Bip01_Neck]
18 165.484543 71.581718 0.000119 176.643677 -1.657967 43.431911 180.302734
19 165.484543 71.581718 0.000119 176.643677 -1.657967 43.431911 180.302734
[L_humerus]
18 -13.983130 -135.272980 -120.471481 173.126343 15.568054 -124.667236 181.680161
19 -13.983130 -135.272980 -120.471481 172.414001 18.302652 -124.270020 181.680161
[R_humerus]
18 -13.983309 -135.273102 125.287651 -170.219620 -10.460321 -124.968559 184.909012
19 -13.983309 -135.273102 125.287651 -169.594330 -13.322845 -124.297302 184.909012
[weapon_bone]
18 235.964890 -300.705902 0.000000 0.000000 -89.951546 -128.212341 382.234833
19 235.964890 -300.705902 0.000000 0.000000 -89.951546 -128.212341 382.234833
[Bip01_Head]
18 213.623642 185.217056 18.212906 6.678622 -7.261679 0.267397 283.323364
19 213.602295 185.278015 17.426182 6.082847 -6.821263 -0.485237 283.297638
[eye_left_bone]
18 -24.626970 125.451866 -64.772606 0.000000 -90.000000 -99.840431 143.318359
19 -24.626970 125.451866 -64.772606 0.000000 -90.000000 -99.840431 143.318359
[eye_right_bone]
18 -24.626970 125.451866 64.327362 0.000000 -89.965736 80.156380 143.117676
19 -24.626970 125.451866 64.327362 0.000000 -89.965736 80.156380 143.117676
[L_forearm]
18 322.776093 0.000000 -0.000119 0.000430 -0.002308 -111.089806 322.776093
19 322.776093 0.000000 -0.000119 0.000428 -0.002308 -111.026810 322.776093
[L_front_hand]
18 241.149185 -0.042021 -3.300071 -178.667953 -1.835447 -27.422350 241.171753
19 241.149185 -0.042021 -3.300071 -178.667953 -1.835447 -27.422342 241.171753
[L_weapon_bone]
18 156.183838 0.000000 0.000000 0.000014 0.000007 0.000001 156.183838
19 156.183838 0.000000 0.000000 0.000014 0.000007 0.000001 156.183838
[L_front_hand01_01]
18 86.095154 20.947098 -0.655860 -0.289102 -0.524108 66.611076 88.609184
19 86.095154 20.947098 -0.655860 -0.291918 -0.522544 67.227623 88.609184
[L_front_hand02_01]
18 86.935165 -11.437475 24.513514 142.580521 -55.269005 -47.395390 91.046425
19 86.935165 -11.437475 24.513514 143.299149 -55.645802 -48.269920 91.046425
[L_front_hand03_01]
18 86.637497 -14.123976 -20.424902 -142.879883 53.494282 -49.391998 90.126129
19 86.637497 -14.123976 -20.424902 -143.556351 53.862476 -50.232788 90.126129
[L_front_hand01_02]
18 71.020905 -0.000179 0.000030 0.000315 -0.002326 -105.441971 71.020905
19 71.020905 -0.000179 0.000030 0.000316 -0.002326 -105.462708 71.020905
[L_front_hand02_02]
18 71.020927 -0.000119 0.000060 0.000315 -0.002326 -105.441971 71.020927
19 71.020927 -0.000119 0.000060 0.000316 -0.002326 -105.462708 71.020927
[L_front_hand03_02]
18 71.020905 -0.000060 0.000060 0.000315 -0.002326 -105.441971 71.020905
19 71.020905 -0.000060 0.000060 0.000316 -0.002326 -105.462708 71.020905
[R_forearm]
18 322.776428 -0.000060 0.000030 0.201127 0.068109 -109.740524 322.776428
19 322.776428 -0.000060 0.000030 0.201156 0.068025 -109.692146 322.776428
[R_front_hand]
18 238.847015 -0.006795 2.210259 -2.635298 -10.645461 -26.312506 238.857239
19 238.847015 -0.006795 2.210259 -2.635298 -10.645461 -26.312506 238.857239
[R_weapon_bone]
18 155.664093 0.002503 -0.000030 0.003487 0.001180 -90.988930 155.664078
19 155.664093 0.002503 -0.000030 0.003487 0.001180 -90.988930 155.664078
[R_front_hand01_01]
18 87.624611 14.231146 22.918642 -140.217056 -53.925083 44.603302 91.683487
19 87.624611 14.231146 22.918642 -141.470367 -54.661602 46.147430 91.683487
[R_front_hand02_01]
18 89.356956 14.367283 -19.491137 140.984955 52.347908 47.247566 92.579636
19 89.356956 14.367283 -19.491137 142.182632 53.068485 48.753605 92.579636
[R_front_hand03_01]
18 87.286232 -22.307278 -0.143439 0.075044 -0.448119 -64.698723 90.091743
19 87.286232 -22.307278 -0.143439 0.083738 -0.444647 -65.861671 90.091743
[R_front_hand01_02]
18 71.020905 0.000060 0.000119 0.002323 -0.000334 106.381714 71.020905
19 71.020905 0.000060 0.000119 0.002323 -0.000334 106.381714 71.020905
[R_front_hand02_02]
18 71.020844 -0.000030 -0.000119 0.002323 -0.000334 106.381714 71.020836
19 71.020844 -0.000030 -0.000119 0.002323 -0.000334 106.381714 71.020836
[R_front_hand03_02]
18 71.020905 0.000000 0.000030 0.002323 -0.000334 106.381714 71.020905
19 71.020905 0.000000 0.000030 0.002323 -0.000334 106.381714 71.020905
[null_rope01_connect]
18 328.732483 0.000000 -0.000238 -166.489563 -66.378654 -165.823196 328.732483
19 328.732483 0.000000 -0.000238 -165.625565 -63.077427 -155.969482 328.732483
[Rope1_Seg01]
18 0.000017 -0.000155 -0.000133 109.337868 61.628914 129.816101 0.000205
19 0.000018 -0.000161 -0.000141 107.444962 52.957531 129.131454 0.000215
[Rope1_Seg02]
18 139.999863 -0.000179 0.000000 5.637871 -4.967727 -17.526823 139.999863
19 139.999863 -0.000179 0.000000 5.492945 -3.870721 -22.085922 139.999863
[Rope1_Seg03]
18 139.999924 0.000060 -0.000060 6.715045 -3.957387 -14.524358 139.999924
19 139.999924 0.000060 -0.000060 8.846341 -2.999502 -19.726316 139.999924
[Rope1_Seg04]
18 139.999924 -0.000060 -0.000119 6.063826 -3.599461 -9.803230 139.999924
19 139.999924 -0.000060 -0.000119 8.826992 -4.066705 -12.356091 139.999924
[Rope1_Seg05]
18 139.999832 0.000119 -0.000060 9.500850 -11.134472 -8.316024 139.999832
19 139.999832 0.000119 -0.000060 10.614062 -11.772371 -7.230112 139.999832
[Rope1_Seg06]
18 139.999954 0.000119 -0.000060 7.937344 -14.056293 -5.370013 139.999954
19 139.999954 0.000119 -0.000060 7.351795 -13.584475 -3.026290 139.999954
[Rope1_Seg07]
18 139.999985 0.000060 0.000000 3.311708 -7.780791 -2.514898 139.999985
19 139.999985 0.000060 0.000000 3.102193 -7.298033 -1.594280 139.999985
[Rope1_Seg09]
18 121.602913 0.000119 -0.000089 -89.793175 -1.359789 0.847147 121.602913
19 121.602913 0.000119 -0.000089 -89.793175 -1.359789 0.847147 121.602913
[L_mid_hand01]
18 103.859421 1.038730 8.195221 129.242508 -66.931091 -37.458965 104.187431
19 103.859421 1.038730 8.195221 130.544373 -67.584534 -38.866943 104.187431
[L_mid_hand02]
18 105.572853 -4.139662 -10.864139 -168.136536 43.236561 -72.353096 106.211075
19 105.572853 -4.139662 -10.864139 -168.923172 43.409309 -73.498886 106.211075
[L_mid_hand03]
18 104.641464 17.579376 -3.913581 -6.285011 17.719219 74.000862 106.179977
19 104.641464 17.579376 -3.913581 -6.012627 17.808174 74.893669 106.179977
[null_rope02_connect]
18 328.732849 0.000179 -0.000119 -155.526840 45.694138 15.388975 328.732849
19 328.732849 0.000179 -0.000119 -153.174591 45.994598 7.201492 328.732849
[Rope2_Seg01]
18 0.000093 -0.000068 0.000000 -78.789215 31.751501 -6.601187 0.000115
19 0.000094 -0.000079 0.000000 -81.313423 32.544392 -8.262292 0.000123
[Rope2_Seg02]
18 139.999741 -0.000060 -0.000119 -5.263030 2.155751 3.007716 139.999756
19 139.999741 -0.000060 -0.000119 -4.840377 2.239211 2.447101 139.999756
[Rope2_Seg03]
18 140.000107 0.000030 0.000000 -8.270956 2.873365 4.909477 140.000107
19 140.000107 0.000030 0.000000 -7.927978 3.137545 4.085002 140.000107
[Rope2_Seg04]
18 139.999802 0.000000 -0.000060 -13.910387 3.742193 9.252368 139.999802
19 139.999802 0.000000 -0.000060 -14.572100 4.586442 8.085672 139.999802
[Rope2_Seg05]
18 139.999985 -0.000060 0.000119 -24.839977 4.637905 24.090252 139.999985
19 139.999985 -0.000060 0.000119 -31.856041 8.800228 25.477642 139.999985
[Rope2_Seg06]
18 139.999893 -0.000030 -0.000119 -13.627341 -10.858447 26.797894 139.999893
19 139.999893 -0.000030 -0.000119 -14.533147 -13.660244 26.921906 139.999893
[Rope2_Seg07]
18 139.999893 0.000060 -0.000060 -0.953117 -7.196692 5.475152 139.999893
19 139.999893 0.000060 -0.000060 0.185967 -7.813589 2.165299 139.999893
[Rope2_Seg09]
18 121.338966 0.000089 -0.000060 33.793236 -1.359788 -0.847141 121.338966
19 121.338966 0.000089 -0.000060 33.793236 -1.359788 -0.847141 121.338966
[R_mid_hand01]
18 104.680779 11.144459 -10.335981 -24.361822 42.075417 58.684319 105.778534
19 104.680779 11.144459 -10.335981 -20.399694 43.830383 64.493835 105.778534
[R_mid_hand02]
18 104.070427 2.443552 8.231699 59.930573 -60.321316 27.236155 104.424065
19 104.070427 2.443552 8.231699 55.242626 -64.206024 32.532070 104.424065
[R_mid_hand03]
18 106.028137 -11.221827 -5.996406 -174.631485 14.897619 -67.203430 106.788818
19 106.028137 -11.221827 -5.996406 -175.861618 15.275425 -71.940262 106.788818
[spine02]
18 129.756927 0.001550 0.000119 -0.995377 -3.936335 6.363639 129.756927
19 129.756927 0.001550 0.000119 -0.945462 -3.948823 5.623657 129.756927
[spine03]
18 78.614120 0.081615 -4.899018 1.998228 3.782857 17.982183 78.766663
19 78.614120 0.081623 -4.899019 1.992925 3.784449 17.920250 78.766663
[pelvis]
18 169.435242 0.051022 0.000000 -0.070119 -0.177820 17.130623 169.435257
19 169.435242 0.051022 0.000000 -0.069967 -0.177879 17.033087 169.435257
[null_rope03_connect]
18 -1.257226 -2.466202 137.391083 -52.737457 -86.285851 59.016598 137.418976
19 -1.257226 -2.466202 137.391083 -76.787010 -87.253128 87.509331 137.418976
[null_rope04_connect]
18 -1.259640 -2.480268 -137.844437 -52.737457 -86.285851 59.016598 137.872513
19 -1.259640 -2.480268 -137.844437 -76.787010 -87.253128 87.509331 137.872513
[Rope3_Seg01]
18 -0.000029 -0.000022 0.000133 -122.255020 51.526005 -58.933777 0.000138
19 -0.000029 -0.000021 0.000141 -121.949478 48.916790 -58.578770 0.000145
[Rope3_Seg02]
18 139.999924 -0.000119 0.000060 -0.032460 -0.348737 3.083308 139.999924
19 139.999924 -0.000119 0.000060 0.028107 0.599471 4.107660 139.999924
[Rope3_Seg03]
18 139.999924 -0.000119 0.000119 -0.099885 -0.312542 2.766857 139.999924
19 139.999924 -0.000119 0.000119 -0.070412 0.538290 3.617266 139.999924
[Rope3_Seg04]
18 139.999924 0.000119 0.000000 -0.128679 -0.125143 1.594372 139.999924
19 139.999924 0.000119 0.000000 -0.110297 1.008906 3.018026 139.999924
[Rope3_Seg05]
18 139.999924 -0.000238 0.000060 -0.052006 -0.234836 2.049396 139.999924
19 139.999924 -0.000238 0.000060 -0.114755 0.301258 2.761325 139.999924
[Rope3_Seg06]
18 139.999893 -0.000119 -0.000060 -0.103194 -0.593532 3.999167 139.999893
19 139.999893 -0.000119 -0.000060 -0.188903 -0.869163 2.946184 139.999893
[Rope3_Seg07]
18 139.999771 0.000060 -0.000119 -0.496805 -0.880276 5.581676 139.999771
19 139.999771 0.000060 -0.000119 -0.364286 -1.438035 3.137494 139.999771
[Rope3_Seg08]
18 139.999985 -0.000060 0.000000 -0.320514 -0.611195 3.807366 139.999985
19 139.999985 -0.000060 0.000000 -0.087937 -0.753393 2.341760 139.999985
[Rope3_Seg09]
18 90.185997 -0.000179 -0.000060 89.793228 -1.359877 -0.847183 90.185997
19 90.185997 -0.000179 -0.000060 89.793228 -1.359877 -0.847183 90.185997
[R_rear_hand01]
18 103.366196 -6.073594 -10.757982 -174.043228 23.976633 -65.003006 104.101845
19 103.366196 -6.073594 -10.757982 -175.914093 24.346796 -69.567566 104.101845
[R_rear_hand02]
18 100.509819 12.039542 -7.992327 -18.533079 34.659107 62.503922 101.543350
19 100.509819 12.039542 -7.992327 -15.704349 35.886925 67.395027 101.543350
[R_rear_hand03]
18 101.539970 5.215704 5.435467 76.952393 -63.971806 15.629128 101.819031
19 101.539970 5.215704 5.435467 74.640678 -68.020927 18.152246 101.819031
[Rope4_Seg01]
18 0.000010 0.000022 -0.000086 18.186785 28.330620 -155.805786 0.000089
19 0.000010 0.000021 -0.000082 19.936110 27.016691 -154.503281 0.000085
[Rope4_Seg02]
18 139.999985 0.000060 0.000119 -0.900630 11.205043 2.557368 139.999985
19 139.999985 0.000060 0.000119 -0.387199 8.810641 2.744954 139.999985
[Rope4_Seg03]
18 139.999924 0.000000 -0.000238 -0.008375 15.850421 4.340794 139.999924
19 139.999924 0.000000 -0.000238 0.168477 13.534316 4.679605 139.999924
[Rope4_Seg04]
18 139.999985 0.000000 0.000119 2.417279 22.894619 11.962382 139.999985
19 139.999985 0.000000 0.000119 3.322006 24.463161 16.225410 139.999985
[Rope4_Seg05]
18 139.999802 -0.000060 -0.000119 3.416529 10.462200 -4.287579 139.999802
19 139.999802 -0.000060 -0.000119 4.086809 9.938784 -8.493761 139.999802
[Rope4_Seg06]
18 139.999924 0.000000 0.000060 4.275395 -2.113386 -10.973684 139.999924
19 139.999924 0.000000 0.000060 3.977489 -3.965283 -12.793390 139.999924
[Rope4_Seg07]
18 139.999802 0.000000 0.000000 1.531036 0.270031 -4.155352 139.999802
19 139.999802 0.000000 0.000000 0.992115 0.128006 -3.732029 139.999802
[Rope4_Seg08]
18 139.999924 0.000000 0.000119 -0.743283 0.428201 -2.113101 139.999924
19 139.999924 0.000000 0.000119 -1.019132 0.102390 -2.022223 139.999924
[Rope4_Seg09]
18 90.185791 0.000060 0.000060 -135.617828 2.228885 0.850567 90.185791
19 90.185791 0.000060 0.000060 -135.617828 2.228885 0.850567 90.185791
[L_rear_hand01]
18 101.696655 -8.392275 -7.654577 -13.354953 -36.717747 108.641335 102.329041
19 101.696655 -8.392275 -7.654577 -12.874829 -36.868488 107.832764 102.329041
[L_rear_hand02]
18 102.726799 -1.568258 5.773216 72.111557 71.190033 159.144608 102.900848
19 102.726799 -1.568258 5.773216 71.484581 71.816628 158.486160 102.900848
[L_rear_hand03]
18 104.552910 9.721220 -10.420293 -177.406555 -24.537506 -106.814919 105.519653
19 104.552910 9.721220 -10.420293 -177.714203 -24.565960 -106.089035 105.519653
